<svg id="svg" xmlns="http://www.w3.org/2000/svg" xmlns:xlink="http://www.w3.org/1999/xlink" width="400" height="400" viewBox="0, 0, 400,400"><g id="svgg"><path id="path0" d="M102.499 72.730 C 102.100 72.984,102.019 98.787,102.099 200.424 L 102.200 327.800 119.200 327.800 L 136.200 327.800 136.317 250.000 C 136.394 197.948,136.286 168.559,135.990 161.200 C 135.268 143.286,134.854 134.078,134.557 129.300 C 134.247 124.298,134.499 123.843,135.999 126.700 C 136.548 127.745,138.725 131.660,140.837 135.400 C 144.585 142.037,145.695 144.014,147.857 147.900 C 148.439 148.945,149.879 151.479,151.057 153.532 C 152.236 155.584,153.200 157.331,153.200 157.414 C 153.200 157.497,153.766 158.518,154.459 159.682 C 155.151 160.847,156.264 162.790,156.932 164.000 C 157.599 165.210,161.381 171.150,165.334 177.200 C 169.288 183.250,173.637 189.910,174.999 192.000 C 176.361 194.090,180.585 200.570,184.385 206.400 C 188.184 212.230,191.702 217.630,192.201 218.400 C 192.701 219.170,195.522 223.490,198.472 228.000 C 201.422 232.510,205.267 238.411,207.018 241.114 C 208.768 243.816,212.522 249.576,215.360 253.914 C 218.198 258.251,222.853 265.400,225.703 269.800 C 228.554 274.200,234.118 282.750,238.068 288.800 C 242.017 294.850,247.893 303.854,251.124 308.808 C 254.356 313.763,258.500 320.110,260.332 322.913 L 263.665 328.008 280.932 327.904 L 298.200 327.800 298.301 200.308 L 298.401 72.816 297.501 72.597 C 297.005 72.476,289.310 72.428,280.400 72.489 L 264.200 72.600 264.200 157.800 C 264.200 221.556,264.327 245.164,264.705 251.600 C 264.982 256.330,265.382 263.530,265.594 267.600 C 265.806 271.670,266.091 275.720,266.228 276.600 C 266.567 278.784,265.524 277.754,263.392 273.800 C 262.561 272.260,261.038 269.470,260.007 267.600 C 258.114 264.167,256.562 261.317,253.797 256.200 C 252.965 254.660,252.155 253.220,251.998 253.000 C 251.841 252.780,250.936 251.160,249.988 249.400 C 248.349 246.358,247.942 245.621,245.953 242.100 C 245.487 241.275,243.417 238.026,241.353 234.879 C 239.289 231.733,237.600 229.082,237.600 228.987 C 237.600 228.892,235.665 225.882,233.300 222.297 C 230.935 218.712,228.080 214.344,226.956 212.589 C 224.434 208.653,215.720 195.228,207.774 183.034 C 204.488 177.992,201.728 173.681,201.639 173.452 C 201.551 173.224,201.324 172.848,201.134 172.618 C 200.879 172.308,190.259 156.012,186.395 150.000 C 179.999 140.049,163.055 113.911,156.645 104.108 C 153.369 99.099,150.378 94.460,149.998 93.800 C 148.186 90.652,136.673 73.340,136.099 72.900 C 135.352 72.327,103.389 72.165,102.499 72.730 " stroke="none" fill="#f9fbf9" fill-rule="evenodd"></path><path id="path1" d="M30.400 0.291 C 29.630 0.382,28.829 0.624,28.620 0.829 C 28.411 1.033,27.826 1.200,27.320 1.200 C 26.814 1.200,26.400 1.380,26.400 1.600 C 26.400 1.820,25.860 2.000,25.200 2.000 C 24.540 2.000,24.000 2.180,24.000 2.400 C 24.000 2.620,23.640 2.800,23.200 2.800 C 22.760 2.800,22.400 2.980,22.400 3.200 C 22.400 3.420,22.040 3.600,21.600 3.600 C 21.160 3.600,20.800 3.780,20.800 4.000 C 20.800 4.220,20.440 4.400,20.000 4.400 C 19.560 4.400,19.200 4.580,19.200 4.800 C 19.200 5.020,18.964 5.200,18.675 5.200 C 18.387 5.200,17.764 5.560,17.292 6.000 C 16.820 6.440,16.252 6.800,16.031 6.800 C 15.533 6.800,7.600 14.559,7.599 15.047 C 7.599 15.241,7.059 16.030,6.400 16.800 C 5.741 17.570,5.201 18.425,5.201 18.700 C 5.200 18.975,5.020 19.200,4.800 19.200 C 4.580 19.200,4.400 19.560,4.400 20.000 C 4.400 20.440,4.220 20.800,4.000 20.800 C 3.780 20.800,3.600 21.160,3.600 21.600 C 3.600 22.040,3.420 22.400,3.200 22.400 C 2.980 22.400,2.800 22.760,2.800 23.200 C 2.800 23.640,2.664 24.000,2.497 24.000 C 2.172 24.000,1.200 26.816,1.200 27.760 C 1.200 28.075,0.975 28.408,0.700 28.500 C -0.036 28.745,-0.036 371.255,0.700 371.500 C 0.975 371.592,1.200 372.091,1.200 372.610 C 1.200 373.128,1.380 373.664,1.600 373.800 C 1.820 373.936,2.000 374.487,2.000 375.024 C 2.000 375.561,2.180 376.000,2.400 376.000 C 2.620 376.000,2.800 376.360,2.800 376.800 C 2.800 377.240,2.980 377.600,3.200 377.600 C 3.420 377.600,3.600 377.960,3.600 378.400 C 3.600 378.840,3.780 379.200,4.000 379.200 C 4.220 379.200,4.400 379.560,4.400 380.000 C 4.400 380.440,4.580 380.800,4.800 380.800 C 5.020 380.800,5.200 381.025,5.201 381.300 C 5.201 381.575,5.741 382.430,6.400 383.200 C 7.059 383.970,7.599 384.741,7.599 384.913 C 7.600 385.086,8.185 385.848,8.900 386.606 C 9.615 387.365,10.577 388.394,11.037 388.893 C 12.375 390.343,14.751 392.400,15.089 392.401 C 15.260 392.401,16.030 392.941,16.800 393.600 C 17.570 394.259,18.425 394.799,18.700 394.799 C 18.975 394.800,19.200 394.980,19.200 395.200 C 19.200 395.420,19.560 395.600,20.000 395.600 C 20.440 395.600,20.800 395.780,20.800 396.000 C 20.800 396.220,21.160 396.400,21.600 396.400 C 22.040 396.400,22.400 396.580,22.400 396.800 C 22.400 397.020,22.760 397.200,23.200 397.200 C 23.640 397.200,24.000 397.380,24.000 397.600 C 24.000 397.820,24.540 398.000,25.200 398.000 C 25.860 398.000,26.400 398.180,26.400 398.400 C 26.400 398.620,26.814 398.800,27.320 398.800 C 27.826 398.800,28.465 399.025,28.740 399.300 C 29.476 400.036,370.524 400.036,371.260 399.300 C 371.535 399.025,372.163 398.800,372.656 398.800 C 373.149 398.800,373.664 398.620,373.800 398.400 C 373.936 398.180,374.487 398.000,375.024 398.000 C 375.561 398.000,376.000 397.820,376.000 397.600 C 376.000 397.380,376.360 397.200,376.800 397.200 C 377.240 397.200,377.600 397.020,377.600 396.800 C 377.600 396.580,377.960 396.400,378.400 396.400 C 378.840 396.400,379.200 396.220,379.200 396.000 C 379.200 395.780,379.520 395.600,379.912 395.600 C 380.303 395.600,380.883 395.240,381.200 394.800 C 381.517 394.360,382.057 394.000,382.400 394.000 C 382.743 394.000,383.283 393.640,383.600 393.200 C 383.917 392.760,384.412 392.400,384.699 392.400 C 385.793 392.400,392.400 385.793,392.400 384.699 C 392.400 384.412,392.760 383.917,393.200 383.600 C 393.640 383.283,394.000 382.743,394.000 382.400 C 394.000 382.057,394.360 381.517,394.800 381.200 C 395.240 380.883,395.600 380.303,395.600 379.912 C 395.600 379.520,395.780 379.200,396.000 379.200 C 396.220 379.200,396.400 378.840,396.400 378.400 C 396.400 377.960,396.580 377.600,396.800 377.600 C 397.020 377.600,397.200 377.240,397.200 376.800 C 397.200 376.360,397.380 376.000,397.600 376.000 C 397.820 376.000,398.000 375.561,398.000 375.024 C 398.000 374.487,398.180 373.936,398.400 373.800 C 398.620 373.664,398.800 373.149,398.800 372.656 C 398.800 372.163,399.025 371.535,399.300 371.260 C 400.036 370.524,400.036 29.145,399.300 28.900 C 399.025 28.808,398.800 28.208,398.800 27.567 C 398.800 26.925,398.620 26.400,398.400 26.400 C 398.180 26.400,398.000 25.961,398.000 25.424 C 398.000 24.887,397.820 24.336,397.600 24.200 C 397.380 24.064,397.200 23.603,397.200 23.176 C 397.200 22.749,397.020 22.400,396.800 22.400 C 396.580 22.400,396.400 22.040,396.400 21.600 C 396.400 21.160,396.220 20.800,396.000 20.800 C 395.780 20.800,395.600 20.480,395.600 20.088 C 395.600 19.697,395.240 19.117,394.800 18.800 C 394.360 18.483,394.000 17.969,394.000 17.659 C 394.000 17.348,393.684 16.803,393.297 16.447 C 392.911 16.091,392.342 15.309,392.034 14.708 C 391.467 13.603,385.439 7.601,384.895 7.599 C 384.733 7.599,383.970 7.059,383.200 6.400 C 382.430 5.741,381.575 5.201,381.300 5.201 C 381.025 5.200,380.800 5.020,380.800 4.800 C 380.800 4.580,380.440 4.400,380.000 4.400 C 379.560 4.400,379.200 4.220,379.200 4.000 C 379.200 3.780,378.840 3.600,378.400 3.600 C 377.960 3.600,377.600 3.420,377.600 3.200 C 377.600 2.980,377.240 2.800,376.800 2.800 C 376.360 2.800,376.000 2.620,376.000 2.400 C 376.000 2.180,375.561 2.000,375.024 2.000 C 374.487 2.000,373.936 1.820,373.800 1.600 C 373.664 1.380,373.128 1.200,372.610 1.200 C 372.091 1.200,371.592 0.975,371.500 0.700 C 371.341 0.222,34.382 -0.183,30.400 0.291 M136.099 72.900 C 136.673 73.340,148.186 90.652,149.998 93.800 C 150.378 94.460,153.369 99.099,156.645 104.108 C 163.055 113.911,179.999 140.049,186.395 150.000 C 190.259 156.012,200.879 172.308,201.134 172.618 C 201.324 172.848,201.551 173.224,201.639 173.452 C 201.728 173.681,204.488 177.992,207.774 183.034 C 215.720 195.228,224.434 208.653,226.956 212.589 C 228.080 214.344,230.935 218.712,233.300 222.297 C 235.665 225.882,237.600 228.892,237.600 228.987 C 237.600 229.082,239.289 231.733,241.353 234.879 C 243.417 238.026,245.487 241.275,245.953 242.100 C 247.942 245.621,248.349 246.358,249.988 249.400 C 250.936 251.160,251.841 252.780,251.998 253.000 C 252.155 253.220,252.965 254.660,253.797 256.200 C 256.562 261.317,258.114 264.167,260.007 267.600 C 261.038 269.470,262.561 272.260,263.392 273.800 C 265.524 277.754,266.567 278.784,266.228 276.600 C 266.091 275.720,265.806 271.670,265.594 267.600 C 265.382 263.530,264.982 256.330,264.705 251.600 C 264.327 245.164,264.200 221.556,264.200 157.800 L 264.200 72.600 280.400 72.489 C 289.310 72.428,297.005 72.476,297.501 72.597 L 298.401 72.816 298.301 200.308 L 298.200 327.800 280.932 327.904 L 263.665 328.008 260.332 322.913 C 258.500 320.110,254.356 313.763,251.124 308.808 C 247.893 303.854,242.017 294.850,238.068 288.800 C 234.118 282.750,228.554 274.200,225.703 269.800 C 222.853 265.400,218.198 258.251,215.360 253.914 C 212.522 249.576,208.768 243.816,207.018 241.114 C 205.267 238.411,201.422 232.510,198.472 228.000 C 195.522 223.490,192.701 219.170,192.201 218.400 C 191.702 217.630,188.184 212.230,184.385 206.400 C 180.585 200.570,176.361 194.090,174.999 192.000 C 173.637 189.910,169.288 183.250,165.334 177.200 C 161.381 171.150,157.599 165.210,156.932 164.000 C 156.264 162.790,155.151 160.847,154.459 159.682 C 153.766 158.518,153.200 157.497,153.200 157.414 C 153.200 157.331,152.236 155.584,151.057 153.532 C 149.879 151.479,148.439 148.945,147.857 147.900 C 145.695 144.014,144.585 142.037,140.837 135.400 C 138.725 131.660,136.548 127.745,135.999 126.700 C 134.499 123.843,134.247 124.298,134.557 129.300 C 134.854 134.078,135.268 143.286,135.990 161.200 C 136.286 168.559,136.394 197.948,136.317 250.000 L 136.200 327.800 119.200 327.800 L 102.200 327.800 102.099 200.424 C 102.019 98.787,102.100 72.984,102.499 72.730 C 103.389 72.165,135.352 72.327,136.099 72.900 " stroke="none" fill="#04ac04" fill-rule="evenodd"></path></g></svg>